<mxfile host="app.diagrams.net" modified="2024-02-20T19:50:40.339Z" agent="Mozilla/5.0 (Windows NT 10.0; Win64; x64) AppleWebKit/537.36 (KHTML, like Gecko) Chrome/121.0.0.0 Safari/537.36" version="23.1.5" etag="rj7e5FoeHV2jT_ASbI31" type="github">
  <diagram name="Page-1" id="-ryBPKiw36kZiM9XK9C2">
    <mxGraphModel>
      <root>
        <mxCell id="0" />
        <mxCell id="1" parent="0" />
      </root>
    </mxGraphModel>
  </diagram>
</mxfile>
